<svg width="378" height="363" viewBox="0 0 378 363" fill="none" xmlns="http://www.w3.org/2000/svg">
<path fill-rule="evenodd" clip-rule="evenodd" d="M137.559 353.479C208.282 353.479 265.614 296.037 265.614 225.18C265.614 154.322 208.282 96.8805 137.559 96.8805C66.8355 96.8805 9.50318 154.322 9.50318 225.18C9.50318 296.037 66.8355 353.479 137.559 353.479ZM137.559 363C213.53 363 275.117 301.296 275.117 225.18C275.117 149.064 213.53 87.3593 137.559 87.3593C61.587 87.3593 0 149.064 0 225.18C0 301.296 61.587 363 137.559 363Z" fill="#F23827"/>
<path fill-rule="evenodd" clip-rule="evenodd" d="M160.591 21.5544C187.762 4.71982 219.796 -2.46565 251.537 1.15453C283.279 4.77471 312.881 18.99 335.58 41.5123C358.279 64.0347 372.754 93.554 376.675 125.319C380.597 157.084 373.736 189.247 357.198 216.632C340.66 244.017 315.406 265.029 285.502 276.289C255.597 287.548 222.781 288.398 192.336 278.704C161.89 269.009 135.586 249.332 117.657 222.841L125.522 217.498C142.254 242.22 166.802 260.582 195.214 269.63C223.627 278.677 254.251 277.883 282.159 267.376C310.067 256.869 333.634 237.259 349.067 211.703C364.501 186.147 370.903 156.132 367.244 126.488C363.584 96.8439 350.076 69.2958 328.893 48.2775C307.71 27.2591 280.084 13.9931 250.462 10.6147C220.841 7.23627 191.187 7.99112 165.83 23.7015C140.474 39.412 121.406 61.6779 111.19 89.7393L102.397 91.8816C113.344 61.8122 133.421 38.389 160.591 21.5544Z" fill="#A60303"/>
<path d="M102.397 91.8816C110.967 68.5312 124.965 49.5635 143.991 33.5758C163.017 17.5882 185.888 6.86674 210.33 2.47669C234.772 -1.91337 259.936 0.180807 283.32 8.55115C306.704 16.9215 327.496 31.2766 343.628 50.1903C359.761 69.1039 370.673 91.9177 375.28 116.365C379.888 140.812 378.03 166.042 369.892 189.547C361.754 213.052 347.619 234.015 328.892 250.352C310.164 266.69 286.882 277.941 262.525 282.783L264.258 278.582C307.602 173.468 212.596 63.8814 102.397 91.8816V91.8816Z" fill="url(#paint0_linear)"/>
<defs>
<linearGradient id="paint0_linear" x1="240.074" y1="0.23938" x2="240.074" y2="282.783" gradientUnits="userSpaceOnUse">
<stop stop-color="#F23827"/>
<stop offset="1" stop-color="#A60303"/>
</linearGradient>
</defs>
</svg>
