<svg id="Capa_1" enable-background="new 0 0 512 512" height="512" viewBox="0 0 512 512" width="512" xmlns="http://www.w3.org/2000/svg"><g><path d="m256 115.967c-77.214 0-140.033 62.819-140.033 140.033 0 32.03 10.526 62.177 30.441 87.18 2.581 3.24 7.298 3.774 10.54 1.194 3.24-2.581 3.774-7.299 1.194-10.539-17.778-22.32-27.174-49.234-27.174-77.835 0-68.943 56.09-125.033 125.033-125.033s125.032 56.09 125.032 125.033-56.09 125.033-125.033 125.033c-28.603 0-55.52-9.398-77.84-27.179-3.239-2.581-7.958-2.047-10.539 1.193s-2.047 7.958 1.193 10.539c25.004 19.918 55.152 30.446 87.186 30.446 77.214 0 140.033-62.819 140.033-140.033s-62.819-140.032-140.033-140.032z"/><path d="m256 97.834c4.142 0 7.5-3.358 7.5-7.5v-26.417c0-4.142-3.358-7.5-7.5-7.5s-7.5 3.358-7.5 7.5v26.417c0 4.142 3.358 7.5 7.5 7.5z"/><path d="m256 41.417c4.142 0 7.5-3.358 7.5-7.5v-26.417c0-4.142-3.358-7.5-7.5-7.5s-7.5 3.358-7.5 7.5v26.417c0 4.142 3.358 7.5 7.5 7.5z"/><path d="m133.553 144.159c1.464 1.464 3.384 2.197 5.303 2.197s3.839-.732 5.303-2.197c2.929-2.929 2.929-7.678 0-10.606l-58.572-58.572c-2.929-2.929-7.678-2.929-10.606 0-2.929 2.929-2.929 7.678 0 10.606z"/><path d="m97.834 256c0-4.142-3.358-7.5-7.5-7.5h-82.834c-4.142 0-7.5 3.358-7.5 7.5s3.358 7.5 7.5 7.5h82.834c4.142 0 7.5-3.358 7.5-7.5z"/><path d="m133.553 367.841-58.572 58.572c-2.929 2.929-2.929 7.678 0 10.606 1.464 1.464 3.384 2.197 5.303 2.197s3.839-.732 5.303-2.197l58.572-58.572c2.929-2.929 2.929-7.678 0-10.607-2.929-2.928-7.678-2.928-10.606.001z"/><path d="m256 414.167c-4.142 0-7.5 3.358-7.5 7.5v82.833c0 4.142 3.358 7.5 7.5 7.5s7.5-3.358 7.5-7.5v-82.833c0-4.143-3.358-7.5-7.5-7.5z"/><path d="m378.447 367.841c-2.929-2.929-7.678-2.929-10.606 0-2.929 2.929-2.929 7.678 0 10.607l58.572 58.572c1.464 1.464 3.384 2.197 5.303 2.197 1.92 0 3.839-.732 5.303-2.197 2.929-2.929 2.929-7.678 0-10.606z"/><path d="m504.5 248.5h-82.833c-4.142 0-7.5 3.358-7.5 7.5s3.358 7.5 7.5 7.5h82.833c4.142 0 7.5-3.358 7.5-7.5s-3.358-7.5-7.5-7.5z"/><path d="m373.144 146.356c1.919 0 3.839-.732 5.303-2.197l58.572-58.572c2.929-2.929 2.929-7.678 0-10.606-2.929-2.929-7.678-2.929-10.606 0l-58.572 58.572c-2.929 2.929-2.929 7.678 0 10.606 1.464 1.465 3.384 2.197 5.303 2.197z"/><path d="m185.673 105.814c1.197 2.888 3.989 4.632 6.932 4.632.956 0 1.929-.184 2.867-.573 3.827-1.585 5.644-5.973 4.059-9.799l-15.85-38.264c-1.586-3.827-5.974-5.644-9.799-4.059-3.827 1.585-5.644 5.973-4.059 9.799z"/><path d="m61.81 183.682 38.264 15.85c.938.389 1.911.573 2.867.573 2.943 0 5.736-1.744 6.932-4.632 1.585-3.827-.232-8.214-4.059-9.799l-38.264-15.85c-3.826-1.584-8.214.232-9.799 4.059-1.585 3.826.232 8.213 4.059 9.799z"/><path d="m109.873 316.528c-1.585-3.827-5.973-5.644-9.799-4.059l-38.264 15.85c-3.827 1.585-5.644 5.973-4.059 9.799 1.196 2.888 3.989 4.632 6.932 4.632.957 0 1.929-.184 2.867-.573l38.264-15.85c3.827-1.585 5.644-5.973 4.059-9.799z"/><path d="m195.472 402.127c-3.826-1.585-8.214.232-9.799 4.059l-15.85 38.264c-1.585 3.827.232 8.214 4.059 9.799.939.389 1.911.573 2.867.573 2.943 0 5.736-1.744 6.932-4.632l15.85-38.264c1.585-3.826-.232-8.214-4.059-9.799z"/><path d="m326.327 406.186c-1.585-3.827-5.973-5.644-9.799-4.059-3.827 1.585-5.644 5.973-4.059 9.799l15.85 38.264c1.197 2.888 3.989 4.632 6.932 4.632.957 0 1.929-.184 2.867-.573 3.827-1.585 5.644-5.973 4.059-9.799z"/><path d="m450.19 328.318-38.264-15.85c-3.826-1.585-8.214.232-9.799 4.059s.232 8.214 4.059 9.799l38.264 15.85c.939.389 1.911.573 2.867.573 2.943 0 5.736-1.744 6.932-4.632 1.585-3.826-.232-8.213-4.059-9.799z"/><path d="m402.127 195.472c1.196 2.888 3.989 4.632 6.932 4.632.956 0 1.929-.184 2.867-.573l38.264-15.85c3.827-1.585 5.644-5.973 4.059-9.799-1.585-3.827-5.973-5.643-9.799-4.059l-38.264 15.85c-3.827 1.585-5.644 5.972-4.059 9.799z"/><path d="m316.528 109.873c.939.389 1.911.573 2.867.573 2.943 0 5.736-1.744 6.932-4.632l15.85-38.264c1.585-3.827-.232-8.214-4.059-9.799s-8.214.232-9.799 4.059l-15.85 38.264c-1.585 3.826.232 8.214 4.059 9.799z"/></g></svg>